<svg data-v-0dd9719b="" version="1.0" xmlns="http://www.w3.org/2000/svg" xmlns:xlink="http://www.w3.org/1999/xlink" width="100%" height="100%" viewBox="0 0 340.000000 250.000000" preserveAspectRatio="xMidYMid meet" color-interpolation-filters="sRGB" style="margin: auto;"> <rect data-v-0dd9719b="" x="0" y="0" width="100%" height="100%" fill="#fff" fill-opacity="1" class="background"></rect> <rect data-v-0dd9719b="" x="0" y="0" width="100%" height="100%" fill="url(#watermark)" fill-opacity="1" class="watermarklayer"></rect> <g data-v-0dd9719b="" fill="#333" class="icon-text-wrapper icon-svg-group iconsvg" transform="translate(62.01000213623047,94.82407379162645)"><g class="iconsvg-imagesvg" transform="translate(0,0)"><g><rect fill="#333" fill-opacity="0" stroke-width="2" x="0" y="0" width="60" height="60.351851293038415" class="image-rect"></rect> <svg x="0" y="0" width="60" height="60.351851293038415" filtersec="colorsb297888879" class="image-svg-svg primary" style="overflow: visible;"><svg xmlns="http://www.w3.org/2000/svg" viewBox="0 -0.003853594185784459 114 114.66903686523438"><path d="M69.51 113.33a57 57 0 0 0 28.6-15.83 60.39 60.39 0 0 1-4.93 4.26c-1.63 1.23-1.63 1.23-2.48 1.81-.36.25-.83.58-1.19.81-1.73 1-3.69 2.16-4.16 0v-.13c5.26-5.27 17.6-22.75-44.11-26.2C24.83 77.14 4.77 76 .7 66.92c.15.9.32 1.8.52 2.7a57.32 57.32 0 0 0 68.29 43.71z" fill="#8bc53f"></path><path d="M85.22 105.47c.24.64.48 1.25 2.41.1l-1.44.85c-1.26.71-1.26.71-2.27 1.24l-1.57.78h-.06c1.6-1.09 2.49-1.68 2.93-2.97zM98.21 97.4c.39-.4.78-.81 1.16-1.23-7.33 7.32-11.86 8.25-14 8.08 2.49.36 5.81-.25 12.84-6.85z" fill="#2eaecc"></path><path d="M89 36.14C68.13 26 44.16 25 28.3 24.37c-12.25-.48-15.94-.63-13.57-4.08a65.85 65.85 0 0 1 5.61-5.52c.83.86.83.86 6.67.71C83.21 14 107.9 29.61 114 49.3c-.2-1.42-.44-2.84-.75-4.26-.24-1.09-.52-2.15-.81-3.21-9.96-20.83-40.11-31.47-84.9-28.59-4.91.31-4.91.31-5.35 0l.81-.64c1.63-1.22 1.63-1.22 2.46-1.8l1.86-1.25c3.5-1.69 49-9.76 73.76 10.86a57.69 57.69 0 0 0-5.55-5.72C70-1.94 31.8 6.88 29 8.51l.9-.53c1.42-.79 1.42-.79 2.25-1.22 1.56-.79 1.59-.8 2.4-1.18l.2-.1c7.71-3.17 24.56-6.27 41-2.41a58.19 58.19 0 0 0-6.52-1.8 67.49 67.49 0 0 0-31.84 3.09c1.72-.67 2.17-.85 3.06-1.15 2.46-.79 2.6-.84 4-1.23 3.11-.76 3.43-.83 5.55-1.2A63.67 63.67 0 0 1 57.89 0 57.34 57.34 0 0 0 0 53.71c.09-1.1.2-1.83.43-3.3-.6 8.59 7.2 11.64 36.32 14.13 91.1 7.78 49 39.39 48.58 39.71C103.73 91.5 106.3 70 54.44 62c-15.17-2.32-30.82-1.88-45.62-6.32C-.24 53 .9 47.79 1.27 46.08s1-3.91 1.6-5.54c.72-1.89 1.72-4.4 2.55-6.24-2.83 7.4 4.05 8.85 19.29 10.2C143.11 55 97 98 85.63 104.1c22.4-11.65 35-41.5-11.55-55.9-18.15-5.62-38.35-7.28-50.43-8.27-12.27-1-20-2.18-16.45-9.08a68.35 68.35 0 0 1 5.61-8.29l.15-.2C9.8 27 14.48 27.24 28.37 28c116.35 6.24 84.27 67.19 57 76.26 20.13-6.32 47.8-46.63 3.63-68.12z" fill="#2eaecc"></path></svg></svg> <!----></g></g> <g transform="translate(67,4.175926208496094)"><g data-gra="path-name" fill-rule="" class="tp-name iconsvg-namesvg"><g transform="scale(1)"><g><path d="M19.89 3.51L34.32 3.51 54.08-48.49 39.78-48.49 27.17-12.68 27.04-12.68 14.43-48.49 0.13-48.49 19.89 3.51ZM58.89 3.51L72.22 3.51 72.22-48.49 58.89-48.49 58.89 3.51ZM96.79 3.51L111.22 3.51 130.98-48.49 116.68-48.49 104.07-12.68 103.94-12.68 91.33-48.49 77.03-48.49 96.79 3.51ZM135.79 3.51L149.11 3.51 149.11-48.49 135.79-48.49 135.79 3.51Z" transform="translate(-0.12999999523162842, 48.4900016784668)"></path></g> <!----> <!----> <!----> <!----> <!----> <!----> <!----></g></g> <!----></g></g><defs v-gra="od"></defs></svg>